<svg width="400" height="674" viewBox="0 0 400 674" fill="none" xmlns="http://www.w3.org/2000/svg">
<g clip-path="url(#clip0_11_21)">
<path d="M-2 -7C132.64 -7 267.28 -7 406 -7C406 220.37 406 447.74 406 682C271.36 682 136.72 682 -2 682C-2 454.63 -2 227.26 -2 -7ZM0 -5C0 108.19 0 221.38 0 338C1.65 336.35 3.3 334.7 5 333C10.8604 329.888 17.1218 328.687 23.5625 327.25C34.8229 324.648 45.7483 321.392 56.7114 317.753C60.6678 316.451 64.6545 315.25 68.6406 314.043C71.3693 313.196 74.0834 312.32 76.7969 311.426C78.0698 311.011 78.0698 311.011 79.3684 310.588C81.0412 310.042 82.7117 309.49 84.3796 308.929C94.1658 305.755 94.1658 305.755 99.2249 307.978C101.81 309.319 104.309 310.761 106.812 312.25C107.683 312.741 108.554 313.232 109.451 313.738C110.692 314.463 110.692 314.463 111.957 315.203C113.086 315.863 113.086 315.863 114.238 316.536C116.32 318.266 116.642 319.361 117 322C115.981 322.131 114.961 322.262 113.911 322.397C110.317 322.951 106.93 323.711 103.42 324.651C101.52 325.159 101.52 325.159 99.5817 325.677C93.7528 327.26 87.9297 328.863 82.1099 330.479C79.0695 331.321 76.0253 332.147 72.9761 332.957C54.456 337.883 38.1303 343.292 21.9044 353.856C17.8096 356.316 13.6527 356.502 9 356C4.46428 354.041 3.28661 352.108 0 348C0 457.56 0 567.12 0 680C65.67 680 131.34 680 199 680C196.525 677.03 196.525 677.03 194 674C192.738 670.215 192.484 667.998 193 664C194.125 662.74 195.296 661.52 196.492 660.328C201.399 654.231 200.917 647.612 200.693 640.179C200.625 637.872 200.611 635.57 200.605 633.262C200.586 631.776 200.564 630.29 200.539 628.805C200.533 628.125 200.526 627.446 200.519 626.746C200.35 621.808 199.126 618.367 197 614C192.473 614.612 188.802 616.457 184.812 618.562C178.254 622 178.254 622 176 622C175.443 620.814 174.886 619.628 174.312 618.406C173.542 616.771 172.771 615.135 172 613.5C171.638 612.728 171.276 611.956 170.902 611.16C167.459 603.865 163.851 596.656 160.23 589.449C156.287 581.598 152.352 573.744 148.417 565.889C147.343 563.745 146.268 561.602 145.192 559.459C143.612 556.311 142.034 553.161 140.457 550.012C139.983 549.069 139.509 548.126 139.02 547.154C135.861 540.836 132.881 534.45 130 528C125.934 531.757 123.144 535.638 120.312 540.375C119.428 541.823 118.541 543.269 117.652 544.715C117.207 545.439 116.763 546.163 116.304 546.91C114.397 549.966 112.393 552.953 110.375 555.938C105.705 562.868 101.19 569.896 96.6875 576.938C95.6644 578.537 95.6644 578.537 94.6206 580.17C91.0508 585.762 87.5046 591.367 84 597C79.3333 596.333 74.6667 595.667 70 595C69.4924 596.414 68.9943 597.831 68.5 599.25C68.2216 600.039 67.9431 600.828 67.6562 601.641C66.8214 604.234 66.8214 604.234 67 608C67.66 608 68.32 608 69 608C69.0996 612.002 69.1718 616.003 69.2197 620.006C69.2397 621.364 69.2669 622.723 69.3018 624.082C69.6632 638.557 69.6632 638.557 65 644C59.4287 647.78 53.92 647.451 47.4336 647.434C46.3219 647.439 45.2103 647.444 44.065 647.449C41.7208 647.456 39.3766 647.455 37.0325 647.446C33.4462 647.438 29.8615 647.466 26.2754 647.498C23.9948 647.5 21.7142 647.499 19.4336 647.496C18.3627 647.507 17.2917 647.519 16.1883 647.53C8.76166 647.461 8.76166 647.461 4.8479 645.094C1.74131 641.574 1.57306 638.9 1.68359 634.324C2.08043 631.409 3.01178 629.275 5.05078 627.125C7.77184 625.555 10.2641 625.406 13.375 625.062C19.0936 624.412 21.7637 623.39 25.4492 619C25.961 618.34 26.4727 617.68 27 617C28.2248 615.621 29.454 614.246 30.6875 612.875C32.5888 610.676 34.4334 608.458 36.25 606.188C38 604 38 604 39.4375 602.707C41.4564 600.501 42.509 598.216 43.75 595.5C44.1986 594.541 44.6472 593.582 45.1094 592.594C46.3157 589.935 46.3157 589.935 45 587C42.8942 586.194 42.8942 586.194 40.4375 585.812C39.6112 585.654 38.7849 585.495 37.9336 585.332C37.2955 585.222 36.6574 585.113 36 585C36.5208 583.487 36.5208 583.487 37.0521 581.943C43.6184 562.846 50.1214 543.731 56.4167 524.543C58.2428 518.986 60.0826 513.432 61.9218 507.879C63.4763 503.181 65.0214 498.48 66.5491 493.773C68.0742 489.076 69.6233 484.388 71.1882 479.704C71.7655 477.963 72.3346 476.218 72.8942 474.471C76.6746 462.687 81.6662 452.896 88.7773 442.762C90.5109 440.264 92.1323 437.699 93.75 435.125C94.2905 434.273 94.831 433.421 95.3879 432.544C95.9199 431.704 96.4519 430.865 97 430C101.416 423.048 105.845 416.106 110.312 409.188C110.775 408.47 111.237 407.753 111.713 407.014C114.88 402.12 114.88 402.12 116 401C116.221 398.792 116.373 396.578 116.5 394.363C116.54 393.668 116.581 392.973 116.622 392.256C116.754 389.942 116.877 387.627 117 385.312C117.043 384.524 117.086 383.735 117.131 382.923C118.147 364.293 118.616 345.652 119 327C120.86 326.617 120.86 326.617 122.758 326.227C128.567 324.933 134.202 323.162 139.875 321.375C149.605 318.344 159.351 315.386 169.125 312.5C170.311 312.15 171.497 311.8 172.718 311.439C175.479 310.625 178.239 309.812 181 309C181.392 310.239 181.784 311.478 182.188 312.754C184.495 319.677 187.45 326.329 190.328 333.029C194.231 342.241 197.359 350.965 198 361C198.075 362.139 198.075 362.139 198.151 363.302C199.688 393.042 189.368 427.362 173.207 452.363C169.856 458.272 170.195 464.493 170.25 471.125C170.214 472.342 170.178 473.559 170.141 474.812C170.141 483.171 172.016 489.268 175.802 496.627C178.494 501.864 180.755 507.275 183.047 512.695C183.5 513.761 183.954 514.826 184.421 515.924C185.867 519.323 187.309 522.724 188.75 526.125C189.76 528.506 190.771 530.887 191.782 533.268C193.327 536.91 194.873 540.552 196.416 544.195C199.373 551.171 202.339 558.143 205.317 565.11C207.09 569.26 208.858 573.413 210.625 577.565C211.453 579.511 212.284 581.455 213.118 583.398C214.269 586.086 215.413 588.777 216.555 591.469C216.892 592.251 217.23 593.033 217.577 593.838C219.3 597.925 220.32 601.594 221 606C222.7 609.041 222.7 609.041 225.109 610.184C229.403 612.882 232.707 616.459 236.25 620.062C236.982 620.795 237.714 621.528 238.469 622.283C245.151 629.021 245.151 629.021 245.312 635.25C245.35 636.183 245.387 637.117 245.426 638.078C244.565 643.987 240.167 648.074 236.043 652.117C235.577 652.578 235.111 653.039 234.631 653.514C233.154 654.972 231.672 656.424 230.188 657.875C221.537 666.353 221.537 666.353 213.431 675.348C212.029 676.967 210.514 678.486 209 680C273.35 680 337.7 680 404 680C404 453.95 404 227.9 404 -5C270.68 -5 137.36 -5 0 -5Z" fill="#3D3D3D"/>
<path d="M107.25 125.75C108.332 125.729 109.413 125.709 110.527 125.688C120.005 125.642 128.346 126.588 135.5 133.313C136.315 134.051 137.129 134.79 137.969 135.551C141.641 139.979 142.293 145.125 143.145 150.656C145.458 156.995 149.914 159.881 155.813 162.625C156.432 162.921 157.052 163.218 157.69 163.523C160.258 164.75 162.845 165.931 165.445 167.086C170.568 169.436 174.461 172.579 178 177C180.034 183.101 179.988 189.751 177.125 195.562C175.886 197.77 174.811 199.189 173 201C168.939 200.797 165.678 199.47 162 197.875C157.85 196.169 155.387 195.538 151 197C150.031 197.516 149.061 198.031 148.063 198.562C141.555 201.547 132.447 200.815 125.645 199.207C120.356 198.907 116.8 201.03 112.188 203.438C110.495 204.293 108.801 205.146 107.106 205.996C106.365 206.38 105.624 206.763 104.86 207.158C103 208 103 208 101 208C96.5924 194.367 96.5924 194.367 96.0001 188C95.3401 187.959 94.6801 187.918 94.0001 187.875C88.4443 186.255 83.784 182.506 80.5001 177.75C79.0001 175 79.0001 175 79.0001 173C78.1545 172.959 77.3088 172.918 76.4376 172.875C70.8044 171.441 67.4588 167.976 64.0626 163.375C62.1514 157.304 61.8178 151.345 63.961 145.281C68.3893 136.988 75.9877 131.163 84.8126 128.063C92.2291 125.896 99.5858 125.786 107.25 125.75Z" fill="#3D3D3D"/>
<path d="M282.88 18.5581C287.658 19.5542 291.713 22.5276 295.812 25.0625C297.94 26.335 300.068 27.6071 302.195 28.8789C304.464 30.2514 306.733 31.6249 309 33C313.145 35.5131 317.297 38.0109 321.47 40.477C323.166 41.4873 324.849 42.5191 326.532 43.551C327.567 44.1633 328.602 44.7755 329.668 45.4063C330.578 45.956 331.489 46.5058 332.427 47.0723C335.002 48.2825 335.002 48.2825 337.707 47.2383C339.86 46.0757 341.906 44.8629 343.938 43.5C350.808 39.171 356.945 38.1431 365 39C374.58 41.2908 382.084 45.535 387.375 53.9375C392.027 62.4448 393.584 71.1208 391.383 80.6797C388.281 89.4916 382.541 95.8976 374.5 100.563C366.122 104.339 357.338 104.635 348.594 101.957C339.923 98.0485 333.648 92.0078 329.5 83.4375C327.77 78.8071 328.081 74.5928 328.375 69.75C328.528 66.9779 328.397 64.7993 328 62C324.38 58.0036 319.995 56.6651 315 55C314.711 55.7838 314.423 56.5675 314.125 57.375C313 60 313 60 311 62C304.921 62.5526 304.921 62.5526 302.125 60.875C300.487 58.1457 300.123 56.193 300 53C300.788 50.4999 301.821 48.3589 303 46C302.072 45.7113 301.144 45.4225 300.188 45.125C297 44 297 44 294 42C293.725 42.727 293.451 43.4541 293.168 44.2031C291.347 48.5641 289.16 52.4649 286 56C282.438 57.375 282.438 57.375 279 57C276 54.9375 276 54.9375 274 52C274.268 47.0997 276.032 43.766 278.562 39.625C279.203 38.5654 279.844 37.5058 280.504 36.4141C280.998 35.6174 281.491 34.8208 282 34C281.214 33.7048 280.427 33.4096 279.617 33.1055C276.535 31.8034 275.464 31.0085 274 28C274.125 24.375 274.125 24.375 275 21C277.913 19.0579 279.424 18.4434 282.88 18.5581Z" fill="#404040"/>
<path d="M106.813 311.188C107.683 311.67 108.554 312.153 109.451 312.65C110.692 313.371 110.692 313.371 111.957 314.105C112.71 314.54 113.462 314.975 114.238 315.423C116.519 317.464 116.52 319.045 117 322C116.124 322.234 115.248 322.468 114.346 322.71C105.97 324.955 97.6044 327.232 89.2466 329.541C84.9524 330.726 80.656 331.9 76.3514 333.047C56.7662 338.274 38.9143 343.526 21.8421 354.873C17.8001 357.347 13.6088 357.514 9.00012 357C5.79188 355.503 3.2708 353.725 1.00012 351C-0.648244 346.055 -1.16774 340.852 0.847775 335.93C5.34387 329.577 12.8222 328.585 20.0001 327C22.6678 326.4 25.3345 325.796 28.0001 325.188C28.6963 325.03 29.3925 324.872 30.1097 324.71C39.0951 322.611 47.8196 319.653 56.5826 316.786C60.5858 315.485 64.6124 314.263 68.6407 313.043C71.3694 312.196 74.0835 311.32 76.797 310.426C78.0699 310.011 78.0699 310.011 79.3685 309.588C81.0413 309.042 82.7119 308.49 84.3798 307.929C93.7232 304.898 98.4448 306.253 106.813 311.188Z" fill="#747474"/>
<path d="M-1 -6C-0.67 -6 -0.34 -6 0 -6C0 220.38 0 446.76 0 680C103.455 679.505 103.455 679.505 209 679C305.525 679.495 305.525 679.495 404 680C404 453.95 404 227.9 404 -5C404.33 -5 404.66 -5 405 -5C405 221.71 405 448.42 405 682C271.02 682 137.04 682 -1 682C-1 454.96 -1 227.92 -1 -6Z" fill="#37A0ED"/>
<path d="M224 287C226.096 289.638 227.63 292.113 228.926 295.22C229.274 296.047 229.622 296.874 229.981 297.726C230.534 299.063 230.534 299.063 231.098 300.426C231.488 301.358 231.879 302.289 232.282 303.249C233.116 305.24 233.947 307.231 234.777 309.223C236.493 313.347 238.222 317.467 239.951 321.586C240.801 323.613 241.651 325.64 242.5 327.668C245.577 335.008 248.692 342.33 251.875 349.625C252.236 350.454 252.597 351.284 252.969 352.138C254.391 355.388 255.823 358.626 257.344 361.832C257.799 362.796 258.254 363.76 258.723 364.754C259.143 365.629 259.563 366.503 259.996 367.405C261.63 371.628 261.832 375.568 261 380C259.204 383.799 257.704 385.52 254.25 387.875C249.592 389.487 245.584 390.158 241.039 388.121C236.638 385.308 234.285 382.126 233 377C232.696 372.708 232.784 368.426 232.812 364.125C232.636 352.727 230.871 344.647 225.1 334.89C223.301 331.799 221.762 328.584 220.188 325.375C219.536 324.078 218.883 322.781 218.23 321.484C215.435 315.89 212.713 310.26 210 304.625C209.507 303.607 209.013 302.589 208.505 301.541C208.049 300.591 207.594 299.642 207.125 298.664C206.715 297.813 206.305 296.962 205.883 296.084C205 294 205 294 205 292C207.228 291.352 209.458 290.706 211.688 290.062C213.55 289.523 213.55 289.523 215.449 288.973C218.296 288.193 221.098 287.527 224 287Z" fill="#757575"/>
<path d="M102 157C106.15 156.506 107.719 156.811 111.25 159.187C117.204 165.276 116.361 172.207 116.479 180.252C116.706 188.056 118.32 192.484 124 198C120.545 199.673 117.085 201.337 113.625 203C112.148 203.715 112.148 203.715 110.641 204.445C109.7 204.896 108.759 205.348 107.789 205.812C106.92 206.231 106.05 206.65 105.155 207.082C103 208 103 208 101 208C96.5923 194.367 96.5923 194.367 96 188C95.34 187.959 94.68 187.917 94 187.875C88.4442 186.255 83.7839 182.506 80.5 177.75C79 175 79 175 79 173C77.68 172.67 76.36 172.34 75 172C75.9178 171.841 76.8356 171.683 77.7812 171.52C87.1334 169.741 94.7346 167.519 101 160C101.33 159.01 101.66 158.02 102 157Z" fill="#737373"/>
<path d="M365 54C370.574 55.8715 374.397 59.7933 377 65C377.51 70.5811 377.787 75.4264 375.25 80.5C374.508 81.325 373.765 82.15 373 83C372.361 83.7425 371.721 84.485 371.063 85.25C367.021 88.6794 363.282 89.4093 357.984 89.25C352.32 88.5364 348.638 85.1434 345 81C341.941 76.0901 342.394 70.5834 343 65C347.702 55.2476 354.896 52.9952 365 54Z" fill="#FCFCFC"/>
<path d="M45 587C48.6746 587.972 52.3374 588.984 56 590C57.1846 590.313 58.3693 590.626 59.5898 590.949C60.7564 591.275 61.923 591.601 63.125 591.938C64.2207 592.235 65.3164 592.533 66.4453 592.84C69 594 69 594 69.957 595.832C70.0087 598.441 69.4619 600.304 68.5625 602.75C68.275 603.549 67.9876 604.348 67.6914 605.172C67.3492 606.077 67.3492 606.077 67 607C60.1496 608.546 52.8653 609.484 46.5 606.188C45.2625 605.105 45.2625 605.105 44 604C42.6725 602.992 41.3401 601.991 40 601C40.3609 600.241 40.7219 599.481 41.0938 598.699C41.7898 597.208 41.7898 597.208 42.5 595.688C42.9641 594.701 43.4281 593.715 43.9062 592.699C45.1878 590.022 45.1878 590.022 45 587Z" fill="#737373"/>
<path d="M219 602C222 606 222 606 223 609C222.484 609.495 221.969 609.99 221.438 610.5C219.351 612.64 217.473 614.831 215.562 617.125C212.915 620.149 211.066 622.187 207 623C204.668 623.076 202.332 623.091 200 623C198.68 619.7 197.36 616.4 196 613C203.59 609.37 211.18 605.74 219 602Z" fill="#727272"/>
</g>
<defs>
<clipPath id="clip0_11_21">
<rect width="400" height="674" fill="white"/>
</clipPath>
</defs>
</svg>
